<svg width="16" height="6" viewBox="0 0 16 6" fill="none" xmlns="http://www.w3.org/2000/svg">
<path d="M13.8606 1.82402L14.7715 3.62738C14.8752 3.82135 14.8657 4.05628 14.7466 4.24125C14.6276 4.42621 14.4177 4.53219 14.1982 4.51818C13.9787 4.50417 13.784 4.37235 13.6895 4.17375L12.7755 2.36272C12.2322 2.60675 11.6889 2.81164 11.1448 2.9774L11.4717 4.47764C11.5254 4.79667 11.319 5.10162 11.0029 5.17049C10.6868 5.23937 10.3724 5.04791 10.2884 4.73548L9.96917 3.27515C9.40515 3.38949 8.83958 3.46085 8.27325 3.49155V5.20896C8.26164 5.53517 7.99382 5.79363 7.6674 5.79363C7.34098 5.79363 7.07316 5.53517 7.06155 5.20896V3.49155C6.4951 3.46088 5.93163 3.38907 5.3756 3.27668L5.03258 4.74085C4.99098 4.95961 4.83279 5.13796 4.62055 5.20538C4.40832 5.27279 4.17621 5.21843 4.01599 5.06377C3.85577 4.90912 3.79324 4.67908 3.85311 4.46459L4.20073 2.98047C3.64132 2.80947 3.09333 2.60314 2.56006 2.36272L1.64534 4.17375C1.55079 4.37235 1.3561 4.50417 1.13659 4.51818C0.917078 4.53219 0.707199 4.42621 0.588167 4.24125C0.469136 4.05628 0.459628 3.82135 0.563323 3.62738L1.47498 1.82402C1.0721 1.60378 0.66999 1.36359 0.268647 1.10037C0.00342515 0.911783 -0.0655791 0.547429 0.112316 0.274918C0.290211 0.00240725 0.651532 -0.0810301 0.930901 0.0858884C3.19239 1.56311 5.43546 2.29596 7.66778 2.29596C9.90011 2.29596 12.1424 1.56311 14.4047 0.0858884C14.684 -0.0810302 15.0454 0.0024071 15.2233 0.274918C15.4011 0.547429 15.3321 0.911783 15.0669 1.10037C14.6656 1.36282 14.2627 1.60378 13.8606 1.82402Z" fill="#A3C0D5"/>
</svg>
