<svg width="16" height="11" viewBox="0 0 16 11" fill="none" xmlns="http://www.w3.org/2000/svg">
<path fill-rule="evenodd" clip-rule="evenodd" d="M0.069087 5.74688C1.44041 8.80645 4.39561 10.7449 7.68002 10.7449H7.68079C10.9637 10.7449 13.9196 8.80645 15.2695 5.8006C15.3777 5.48521 15.3777 5.26113 15.2902 4.99945C13.9196 1.93988 10.9637 0.00146484 7.67926 0.00146484C4.39638 0.00146484 1.44041 1.93988 0.0898064 4.94573C-0.018395 5.26113 -0.018395 5.48521 0.069087 5.74688ZM1.14729 5.34047L1.14266 5.33019H1.14419V5.3325C1.14533 5.33515 1.14636 5.33782 1.14729 5.34047ZM1.16105 5.37077C1.15769 5.37658 1.15586 5.36988 1.15276 5.35858L1.15276 5.35858L1.15276 5.35856C1.15131 5.35327 1.14958 5.34696 1.14729 5.34047L1.16105 5.37077ZM1.16105 5.37077C2.33568 7.94212 4.8685 9.59379 7.68002 9.59379C10.5063 9.59379 13.0517 7.92473 14.1967 5.38314C14.1975 5.38048 14.1982 5.37843 14.1989 5.3769L14.2166 5.41614L14.2158 5.41384C14.2118 5.4044 14.2092 5.39467 14.2071 5.38712C14.204 5.37546 14.2023 5.36902 14.1989 5.3769C13.0252 2.80479 10.4913 1.15254 7.68079 1.15254C4.85451 1.15254 2.30909 2.82161 1.16415 5.36319C1.16297 5.36673 1.16195 5.3692 1.16105 5.37077ZM7.67964 8.34679C6.88837 8.35391 6.12735 8.04314 5.56723 7.48418C5.00702 6.92512 4.69468 6.16459 4.70026 5.37317C4.69468 4.58175 5.00702 3.82121 5.56723 3.26216C6.12744 2.7031 6.88862 2.39233 7.68002 2.39955C8.47116 2.39274 9.23195 2.7037 9.79182 3.26271C10.3517 3.82172 10.6638 4.58202 10.6582 5.37317C10.6638 6.16445 10.3516 6.92487 9.79155 7.4839C9.2316 8.04284 8.47078 8.3537 7.67964 8.34679ZM7.67964 8.34679L7.68002 8.34679H7.67926L7.67964 8.34679ZM9.5064 5.37317C9.5064 6.39763 8.70679 7.19571 7.68002 7.19571C7.19423 7.20258 6.72627 7.01289 6.38237 6.66971C6.03847 6.32653 5.8478 5.85897 5.85364 5.37317C5.8478 4.88736 6.03847 4.4198 6.38237 4.07662C6.72627 3.73345 7.19423 3.54376 7.68002 3.55063C8.16581 3.54376 8.63377 3.73345 8.97767 4.07662C9.32158 4.4198 9.51225 4.88736 9.5064 5.37317Z" fill="#A3C0D5"/>
</svg>
