<svg width="33" height="39" viewBox="0 0 33 39" fill="none" xmlns="http://www.w3.org/2000/svg">
<path d="M4.75861 27.5764C3.25077 26.0808 2.05396 24.3016 1.23723 22.3412C0.420494 20.3808 0 18.2781 0 16.1544C0 14.0306 0.420494 11.9279 1.23723 9.96755C2.05396 8.00716 3.25077 6.22788 4.75861 4.73236C11.1042 -1.57745 21.3936 -1.57745 27.7391 4.73236C29.2472 6.22791 30.4442 8.00729 31.2611 9.96783C32.078 11.9284 32.4985 14.0313 32.4985 16.1552C32.4985 18.2791 32.078 20.382 31.2611 22.3425C30.4442 24.3031 29.2472 26.0824 27.7391 27.578L16.2489 39L4.75861 27.5764Z" fill="#E7001C"/>
<path d="M14.6246 20.3005C13.2108 20.8119 11.5565 21.233 9.66153 21.5338L9.87208 23.0377C11.6467 22.7069 13.2259 22.2707 14.6246 21.7594V20.3005ZM11.9325 9.59244C11.4061 11.2167 10.7895 12.6755 10.0826 13.999C9.9172 14.2697 9.72169 14.4351 9.49609 14.5254L9.842 15.8188C10.594 15.6985 11.3159 15.5932 12.0227 15.4879C11.361 16.7362 10.8196 17.6085 10.3834 18.1198C10.2029 18.2853 9.9924 18.4206 9.75176 18.5259L10.1278 19.8193C11.3309 19.6388 12.6243 19.2779 13.9929 18.7665V17.4882C13.2409 17.789 12.504 18.0296 11.7671 18.2251C12.5792 17.0971 13.5718 15.2774 14.7749 12.7808L13.5267 12.3146C13.2259 12.9763 12.9251 13.608 12.6544 14.1945C12.1581 14.2848 11.6618 14.36 11.1504 14.4201C11.8723 13.3072 12.5641 11.8784 13.256 10.1038L11.9325 9.59244ZM17.7076 17.6987L16.9557 18.7966C18.4145 19.1876 19.8282 19.699 21.2118 20.3607L21.9187 19.2779C20.6403 18.6612 19.2417 18.1349 17.7076 17.6987ZM15.8879 20.105L15.0757 21.2931C17.3617 21.8496 19.5725 22.6166 21.7232 23.5791L22.4752 22.391C20.4899 21.4887 18.2942 20.7367 15.8879 20.105ZM17.1512 9.60748C16.7 11.2468 15.8277 12.6304 14.5644 13.7734L15.4668 14.9465C15.8578 14.5855 16.2338 14.1945 16.5797 13.7885C17.0309 14.2998 17.5272 14.7811 18.0686 15.2623C16.9557 16.1346 15.6623 16.7813 14.2185 17.2325L14.9253 18.4958C16.5346 17.9544 17.9483 17.1723 19.1665 16.1647C20.2644 16.9919 21.4826 17.6987 22.8361 18.3003L23.5881 17.0069C22.3398 16.4956 21.1968 15.909 20.1741 15.2322C21.0163 14.36 21.7382 13.3222 22.3398 12.1491V10.9911H18.2039C18.3543 10.6151 18.4747 10.2091 18.595 9.78795L17.1512 9.60748ZM19.0462 14.4051C18.4145 13.8937 17.828 13.3523 17.3166 12.7658C17.3918 12.6304 17.467 12.4951 17.5573 12.3597H20.7005C20.2192 13.1117 19.6628 13.7885 19.0462 14.4051Z" fill="white"/>
</svg>
