<svg width="41" height="43" viewBox="0 0 41 43" fill="none" xmlns="http://www.w3.org/2000/svg">
<g filter="url(#filter0_d_0_16107)">
<ellipse cx="20.7963" cy="20.4904" rx="14.8384" ry="16.0154" transform="rotate(-180 20.7963 20.4904)" fill="white"/>
</g>
<path fill-rule="evenodd" clip-rule="evenodd" d="M30.157 28.5025C30.3821 28.5745 30.5829 28.3401 30.4771 28.1288L21.0353 9.2651C20.9369 9.0685 20.6563 9.0685 20.5579 9.2651L11.1162 28.1288C11.0104 28.3401 11.2111 28.5745 11.4362 28.5025L20.7966 25.5067L30.157 28.5025Z" fill="#D8D8D8"/>
<mask id="mask0_0_16107" style="mask-type:alpha" maskUnits="userSpaceOnUse" x="11" y="9" width="20" height="20">
<path fill-rule="evenodd" clip-rule="evenodd" d="M30.157 28.5025C30.3821 28.5745 30.5829 28.3401 30.4771 28.1288L21.0353 9.2651C20.9369 9.0685 20.6563 9.0685 20.5579 9.2651L11.1162 28.1288C11.0104 28.3401 11.2111 28.5745 11.4362 28.5025L20.7966 25.5067L30.157 28.5025Z" fill="white"/>
</mask>
<g mask="url(#mask0_0_16107)">
<path fill-rule="evenodd" clip-rule="evenodd" d="M30.8125 28.4981L20.7966 21.6915V8.8792H30.0706L30.8125 28.4981Z" fill="#427CFF"/>
<path fill-rule="evenodd" clip-rule="evenodd" d="M30.8125 28.4981L20.7966 21.6915V28.8985H30.8125V28.4981Z" fill="#5E8FFF"/>
<path fill-rule="evenodd" clip-rule="evenodd" d="M10.7809 28.4981L20.7969 21.6915V28.8985H10.7809V28.4981Z" fill="#427CFF"/>
<path fill-rule="evenodd" clip-rule="evenodd" d="M10.7809 28.4981L20.7969 21.6915L20.7969 8.8792H10.7809L10.7809 28.4981Z" fill="#5E8FFF"/>
</g>
<defs>
<filter id="filter0_d_0_16107" x="0.957031" y="0.474945" width="39.6777" height="42.0308" filterUnits="userSpaceOnUse" color-interpolation-filters="sRGB">
<feFlood flood-opacity="0" result="BackgroundImageFix"/>
<feColorMatrix in="SourceAlpha" type="matrix" values="0 0 0 0 0 0 0 0 0 0 0 0 0 0 0 0 0 0 127 0" result="hardAlpha"/>
<feOffset dy="1"/>
<feGaussianBlur stdDeviation="2.5"/>
<feColorMatrix type="matrix" values="0 0 0 0 0 0 0 0 0 0 0 0 0 0 0 0 0 0 0.1 0"/>
<feBlend mode="normal" in2="BackgroundImageFix" result="effect1_dropShadow_0_16107"/>
<feBlend mode="normal" in="SourceGraphic" in2="effect1_dropShadow_0_16107" result="shape"/>
</filter>
</defs>
</svg>
