<svg width="33" height="39" viewBox="0 0 33 39" fill="none" xmlns="http://www.w3.org/2000/svg">
<path d="M5.01056 27.5764C3.50272 26.0808 2.30591 24.3016 1.48918 22.3412C0.672447 20.3808 0.251953 18.2781 0.251953 16.1544C0.251953 14.0306 0.672447 11.9279 1.48918 9.96755C2.30591 8.00716 3.50272 6.22788 5.01056 4.73236C11.3561 -1.57745 21.6455 -1.57745 27.9911 4.73236C29.4992 6.22791 30.6962 8.00729 31.513 9.96783C32.3299 11.9284 32.7505 14.0313 32.7505 16.1552C32.7505 18.2791 32.3299 20.382 31.513 22.3425C30.6962 24.3031 29.4992 26.0824 27.9911 27.578L16.5008 39L5.01056 27.5764Z" fill="#03A58D"/>
<path d="M23.1971 17.8491L21.8435 17.3979C21.7984 18.18 21.7382 18.7064 21.648 18.9771C21.5427 19.2779 21.3171 19.4283 20.9562 19.4283H19.1214C18.7604 19.4132 18.5799 19.2478 18.5799 18.9169V15.7586H22.5353V10.5399H16.9707V11.8784H21.1366V14.4051H17.1662V19.4734C17.1662 20.3607 17.6024 20.8119 18.5047 20.8119H21.1968C21.9488 20.8119 22.4451 20.6164 22.6707 20.2554C22.9113 19.8794 23.0767 19.0824 23.1971 17.8491ZM10.6541 16.8715C10.5639 18.9771 10.1879 20.8871 9.49609 22.6016L10.594 23.5641C10.9098 22.7971 11.1805 21.985 11.3911 21.1127C11.9024 21.8346 12.504 22.3459 13.1808 22.6617C14.0681 23.0528 16.2789 23.2633 19.8132 23.2633H23.2422L23.4828 21.8947C22.6105 21.9549 21.272 21.985 19.4973 21.985C17.0309 21.985 15.3314 21.8797 14.3689 21.6842V19.1726H16.3691V17.8792H14.3689V16.0745H16.4744V14.751H14.0531V12.856H16.2789V11.5626H14.0531V9.60748H12.6393V11.5626H10.2781V12.856H12.6393V14.751H10.0074V16.0745H12.9853V21.0525C12.504 20.6916 12.0829 20.2103 11.6919 19.5787C11.8122 18.7665 11.9024 17.9093 11.9325 17.0219L10.6541 16.8715Z" fill="white"/>
</svg>
