<svg width="24" height="26" viewBox="0 0 24 26" fill="none" xmlns="http://www.w3.org/2000/svg">
<g filter="url(#filter0_d_595_45845)">
<path d="M3.75 5.4375C3.75 5.0578 4.0578 4.75 4.4375 4.75V4.75C4.8172 4.75 5.125 5.0578 5.125 5.4375V5.4375C5.125 5.8172 4.8172 6.125 4.4375 6.125V6.125C4.0578 6.125 3.75 5.8172 3.75 5.4375V5.4375ZM6.5 5.4375C6.5 5.0578 6.8078 4.75 7.1875 4.75H15.4375C15.8172 4.75 16.125 5.0578 16.125 5.4375V5.4375C16.125 5.8172 15.8172 6.125 15.4375 6.125H7.1875C6.8078 6.125 6.5 5.8172 6.5 5.4375V5.4375ZM3.75 10.9375C3.75 10.5578 4.0578 10.25 4.4375 10.25V10.25C4.8172 10.25 5.125 10.5578 5.125 10.9375V10.9375C5.125 11.3172 4.8172 11.625 4.4375 11.625V11.625C4.0578 11.625 3.75 11.3172 3.75 10.9375V10.9375ZM6.5 10.9375C6.5 10.5578 6.8078 10.25 7.1875 10.25H15.4375C15.8172 10.25 16.125 10.5578 16.125 10.9375V10.9375C16.125 11.3172 15.8172 11.625 15.4375 11.625H7.1875C6.8078 11.625 6.5 11.3172 6.5 10.9375V10.9375Z" fill="#4695FF"/>
<path d="M21.625 2H2.375C1.61875 2 1 2.61875 1 3.375V18.5C1 19.2563 1.61875 19.875 2.375 19.875H21.625C22.3813 19.875 23 19.2563 23 18.5V3.375C23 2.61875 22.3813 2 21.625 2ZM2.375 3.375H21.625V7.5H2.375V3.375ZM2.375 8.875H21.625V13H2.375V8.875ZM2.375 18.5V14.375H21.625V18.5H2.375Z" fill="#A2BED3"/>
</g>
<g filter="url(#filter1_d_595_45845)">
<path d="M4 16.6C4 16.2686 4.26863 16 4.6 16H4.73333C5.0647 16 5.33333 16.2686 5.33333 16.6V16.6C5.33333 16.9314 5.0647 17.2 4.73333 17.2H4.6C4.26863 17.2 4 16.9314 4 16.6V16.6ZM6.66667 16.6C6.66667 16.2686 6.9353 16 7.26667 16H15.4C15.7314 16 16 16.2686 16 16.6V16.6C16 16.9314 15.7314 17.2 15.4 17.2H7.26667C6.9353 17.2 6.66667 16.9314 6.66667 16.6V16.6Z" fill="#4695FF"/>
</g>
<defs>
<filter id="filter0_d_595_45845" x="0" y="2" width="24" height="19.875" filterUnits="userSpaceOnUse" color-interpolation-filters="sRGB">
<feFlood flood-opacity="0" result="BackgroundImageFix"/>
<feColorMatrix in="SourceAlpha" type="matrix" values="0 0 0 0 0 0 0 0 0 0 0 0 0 0 0 0 0 0 127 0" result="hardAlpha"/>
<feOffset dy="1"/>
<feGaussianBlur stdDeviation="0.5"/>
<feComposite in2="hardAlpha" operator="out"/>
<feColorMatrix type="matrix" values="0 0 0 0 0 0 0 0 0 0 0 0 0 0 0 0 0 0 0.5 0"/>
<feBlend mode="normal" in2="BackgroundImageFix" result="effect1_dropShadow_595_45845"/>
<feBlend mode="normal" in="SourceGraphic" in2="effect1_dropShadow_595_45845" result="shape"/>
</filter>
<filter id="filter1_d_595_45845" x="0" y="16" width="20" height="9.20001" filterUnits="userSpaceOnUse" color-interpolation-filters="sRGB">
<feFlood flood-opacity="0" result="BackgroundImageFix"/>
<feColorMatrix in="SourceAlpha" type="matrix" values="0 0 0 0 0 0 0 0 0 0 0 0 0 0 0 0 0 0 127 0" result="hardAlpha"/>
<feOffset dy="4"/>
<feGaussianBlur stdDeviation="2"/>
<feComposite in2="hardAlpha" operator="out"/>
<feColorMatrix type="matrix" values="0 0 0 0 0 0 0 0 0 0 0 0 0 0 0 0 0 0 0.5 0"/>
<feBlend mode="normal" in2="BackgroundImageFix" result="effect1_dropShadow_595_45845"/>
<feBlend mode="normal" in="SourceGraphic" in2="effect1_dropShadow_595_45845" result="shape"/>
</filter>
</defs>
</svg>
