<svg width="24" height="22" viewBox="0 0 24 22" fill="none" xmlns="http://www.w3.org/2000/svg">
<g opacity="0.8" filter="url(#filter0_d_0_16097)">
<path fill-rule="evenodd" clip-rule="evenodd" d="M21.1632 5.75088L17.4994 7.50176V5.75088C17.4994 4.78883 16.6754 4 15.665 4H2.83436C1.82644 4 1 4.78649 1 5.75088V16.2491C1 17.2112 1.82399 18 2.83436 18H15.665C16.6729 18 17.4994 17.2135 17.4994 16.2491V14.5006L21.1656 16.2515C22.1736 16.2515 23 15.465 23 14.5006V7.50176C22.9975 6.53737 22.1736 5.75088 21.1632 5.75088ZM15.665 16.2491H2.83436V5.75088H15.665V16.2491ZM21.1632 14.325L18.3209 12.9253C18.0463 12.8387 17.7716 12.7497 17.4969 12.7497V9.25029C17.7716 9.25029 18.0463 9.16368 18.3209 9.07474L21.1632 7.67497V14.325Z" fill="#C6E7FF"/>
</g>
<g filter="url(#filter1_d_0_16097)">
<path fill-rule="evenodd" clip-rule="evenodd" d="M7.77002 15.6208V12.0743H10.2261C12.6406 12.0743 13.8479 11.1165 13.8479 9.21379C13.8479 7.32403 12.6406 6.37915 10.2539 6.37915H6.14648V15.6208H7.77002ZM10.129 10.78H7.77002V7.67351H10.129C10.8367 7.67351 11.364 7.79 11.697 8.03593C12.0301 8.26891 12.2105 8.65722 12.2105 9.21379C12.2105 9.77036 12.044 10.1716 11.7109 10.4175C11.3779 10.6505 10.8506 10.78 10.129 10.78Z" fill="#4695FF"/>
</g>
<defs>
<filter id="filter0_d_0_16097" x="0" y="4" width="24" height="16" filterUnits="userSpaceOnUse" color-interpolation-filters="sRGB">
<feFlood flood-opacity="0" result="BackgroundImageFix"/>
<feColorMatrix in="SourceAlpha" type="matrix" values="0 0 0 0 0 0 0 0 0 0 0 0 0 0 0 0 0 0 127 0" result="hardAlpha"/>
<feOffset dy="1"/>
<feGaussianBlur stdDeviation="0.5"/>
<feColorMatrix type="matrix" values="0 0 0 0 0 0 0 0 0 0 0 0 0 0 0 0 0 0 0.5 0"/>
<feBlend mode="normal" in2="BackgroundImageFix" result="effect1_dropShadow_0_16097"/>
<feBlend mode="normal" in="SourceGraphic" in2="effect1_dropShadow_0_16097" result="shape"/>
</filter>
<filter id="filter1_d_0_16097" x="5.14648" y="6.37915" width="9.70117" height="11.2417" filterUnits="userSpaceOnUse" color-interpolation-filters="sRGB">
<feFlood flood-opacity="0" result="BackgroundImageFix"/>
<feColorMatrix in="SourceAlpha" type="matrix" values="0 0 0 0 0 0 0 0 0 0 0 0 0 0 0 0 0 0 127 0" result="hardAlpha"/>
<feOffset dy="1"/>
<feGaussianBlur stdDeviation="0.5"/>
<feColorMatrix type="matrix" values="0 0 0 0 0 0 0 0 0 0 0 0 0 0 0 0 0 0 0.5 0"/>
<feBlend mode="normal" in2="BackgroundImageFix" result="effect1_dropShadow_0_16097"/>
<feBlend mode="normal" in="SourceGraphic" in2="effect1_dropShadow_0_16097" result="shape"/>
</filter>
</defs>
</svg>
