<svg width="22" height="24" viewBox="0 0 22 24" fill="none" xmlns="http://www.w3.org/2000/svg">
<g filter="url(#filter0_d_1785_65645)">
<path d="M17.4821 21.9686H4.51785C4.12989 21.9675 3.74593 21.8901 3.38789 21.7407C3.02985 21.5912 2.70475 21.3728 2.43115 21.0977C2.15755 20.8226 1.94081 20.4964 1.79329 20.1376C1.64578 19.7787 1.57039 19.3944 1.57142 19.0064V4.50212C1.57039 4.11416 1.64578 3.72979 1.79329 3.37096C1.94081 3.01214 2.15755 2.68588 2.43115 2.41082C2.70475 2.13576 3.02985 1.91728 3.38789 1.76786C3.74593 1.61844 4.12989 1.54101 4.51785 1.53998H6.28571V3.11141H4.51785C4.15142 3.11452 3.80111 3.26254 3.54347 3.52312C3.28583 3.78371 3.1418 4.13568 3.14285 4.50212V19.0064C3.1418 19.3729 3.28583 19.7248 3.54347 19.9854C3.80111 20.246 4.15142 20.394 4.51785 20.3971H17.4821C17.8486 20.394 18.1989 20.246 18.4565 19.9854C18.7142 19.7248 18.8582 19.3729 18.8571 19.0064V4.50212C18.8582 4.13568 18.7142 3.78371 18.4565 3.52312C18.1989 3.26254 17.8486 3.11452 17.4821 3.11141H15.6436V1.53998H17.4821C17.8701 1.54101 18.2541 1.61844 18.6121 1.76786C18.9701 1.91728 19.2952 2.13576 19.5688 2.41082C19.8424 2.68588 20.0592 3.01214 20.2067 3.37096C20.3542 3.72979 20.4296 4.11416 20.4286 4.50212V19.0064C20.4296 19.3944 20.3542 19.7787 20.2067 20.1376C20.0592 20.4964 19.8424 20.8226 19.5688 21.0977C19.2952 21.3728 18.9701 21.5912 18.6121 21.7407C18.2541 21.8901 17.8701 21.9675 17.4821 21.9686V21.9686Z" fill="#A2BED3"/>
</g>
<g filter="url(#filter1_d_1785_65645)">
<path d="M10.2142 8.64284H5.49994C5.29158 8.6428 5.09176 8.56001 4.94444 8.41266C4.79712 8.26532 4.71436 8.06549 4.71436 7.85713C4.71436 7.64876 4.79712 7.44893 4.94444 7.30159C5.09176 7.15424 5.29158 7.07145 5.49994 7.07141H10.2142C10.4226 7.07145 10.6224 7.15424 10.7697 7.30159C10.917 7.44893 10.9998 7.64876 10.9998 7.85713C10.9998 8.06549 10.917 8.26532 10.7697 8.41266C10.6224 8.56001 10.4226 8.6428 10.2142 8.64284ZM16.4999 12.7364H5.49994C5.29158 12.7364 5.09176 12.6536 4.94444 12.5062C4.79712 12.3589 4.71436 12.1591 4.71436 11.9507C4.71436 11.7423 4.79712 11.5425 4.94444 11.3952C5.09176 11.2478 5.29158 11.165 5.49994 11.165H16.4999C16.7083 11.165 16.9081 11.2478 17.0554 11.3952C17.2028 11.5425 17.2855 11.7423 17.2855 11.9507C17.2855 12.1591 17.2028 12.3589 17.0554 12.5062C16.9081 12.6536 16.7083 12.7364 16.4999 12.7364ZM16.4999 16.8418H5.49994C5.29158 16.8417 5.09176 16.7589 4.94444 16.6116C4.79712 16.4642 4.71436 16.2644 4.71436 16.0561C4.71436 15.8477 4.79712 15.6479 4.94444 15.5005C5.09176 15.3532 5.29158 15.2704 5.49994 15.2703H16.4999C16.7083 15.2704 16.9081 15.3532 17.0554 15.5005C17.2028 15.6479 17.2855 15.8477 17.2855 16.0561C17.2855 16.2644 17.2028 16.4642 17.0554 16.6116C16.9081 16.7589 16.7083 16.8417 16.4999 16.8418Z" fill="#4695FF"/>
</g>
<g filter="url(#filter2_d_1785_65645)">
<path d="M15.4286 1.60286V3.17429H7.57143V1.60286H15.4286ZM15.4286 0.0314331H7.57143C7.15466 0.0314331 6.75496 0.196994 6.46026 0.491694C6.16556 0.786394 6 1.18609 6 1.60286V3.17429C6 3.38065 6.04065 3.58499 6.11962 3.77565C6.19859 3.9663 6.31434 4.13954 6.46026 4.28546C6.60618 4.43138 6.77941 4.54713 6.97007 4.6261C7.16072 4.70507 7.36506 4.74572 7.57143 4.74572H15.4286C15.6349 4.74572 15.8393 4.70507 16.0299 4.6261C16.2206 4.54713 16.3938 4.43138 16.5397 4.28546C16.6857 4.13954 16.8014 3.9663 16.8804 3.77565C16.9593 3.58499 17 3.38065 17 3.17429V1.60286C17 1.3965 16.9593 1.19216 16.8804 1.0015C16.8014 0.810847 16.6857 0.637614 16.5397 0.491694C16.3938 0.345773 16.2206 0.230023 16.0299 0.151051C15.8393 0.0720793 15.6349 0.0314331 15.4286 0.0314331Z" fill="#A5C2D8"/>
</g>
<defs>
<filter id="filter0_d_1785_65645" x="0.571411" y="1.53998" width="20.8572" height="22.4286" filterUnits="userSpaceOnUse" color-interpolation-filters="sRGB">
<feFlood flood-opacity="0" result="BackgroundImageFix"/>
<feColorMatrix in="SourceAlpha" type="matrix" values="0 0 0 0 0 0 0 0 0 0 0 0 0 0 0 0 0 0 127 0" result="hardAlpha"/>
<feOffset dy="1"/>
<feGaussianBlur stdDeviation="0.5"/>
<feComposite in2="hardAlpha" operator="out"/>
<feColorMatrix type="matrix" values="0 0 0 0 0 0 0 0 0 0 0 0 0 0 0 0 0 0 0.5 0"/>
<feBlend mode="normal" in2="BackgroundImageFix" result="effect1_dropShadow_1785_65645"/>
<feBlend mode="normal" in="SourceGraphic" in2="effect1_dropShadow_1785_65645" result="shape"/>
</filter>
<filter id="filter1_d_1785_65645" x="3.71436" y="7.07141" width="14.5712" height="11.7704" filterUnits="userSpaceOnUse" color-interpolation-filters="sRGB">
<feFlood flood-opacity="0" result="BackgroundImageFix"/>
<feColorMatrix in="SourceAlpha" type="matrix" values="0 0 0 0 0 0 0 0 0 0 0 0 0 0 0 0 0 0 127 0" result="hardAlpha"/>
<feOffset dy="1"/>
<feGaussianBlur stdDeviation="0.5"/>
<feComposite in2="hardAlpha" operator="out"/>
<feColorMatrix type="matrix" values="0 0 0 0 0 0 0 0 0 0 0 0 0 0 0 0 0 0 0.5 0"/>
<feBlend mode="normal" in2="BackgroundImageFix" result="effect1_dropShadow_1785_65645"/>
<feBlend mode="normal" in="SourceGraphic" in2="effect1_dropShadow_1785_65645" result="shape"/>
</filter>
<filter id="filter2_d_1785_65645" x="5" y="0.0314331" width="13" height="6.71429" filterUnits="userSpaceOnUse" color-interpolation-filters="sRGB">
<feFlood flood-opacity="0" result="BackgroundImageFix"/>
<feColorMatrix in="SourceAlpha" type="matrix" values="0 0 0 0 0 0 0 0 0 0 0 0 0 0 0 0 0 0 127 0" result="hardAlpha"/>
<feOffset dy="1"/>
<feGaussianBlur stdDeviation="0.5"/>
<feComposite in2="hardAlpha" operator="out"/>
<feColorMatrix type="matrix" values="0 0 0 0 0 0 0 0 0 0 0 0 0 0 0 0 0 0 0.5 0"/>
<feBlend mode="normal" in2="BackgroundImageFix" result="effect1_dropShadow_1785_65645"/>
<feBlend mode="normal" in="SourceGraphic" in2="effect1_dropShadow_1785_65645" result="shape"/>
</filter>
</defs>
</svg>
