<svg width="24" height="24" viewBox="0 0 24 24" fill="none" xmlns="http://www.w3.org/2000/svg">
<g opacity="0.8" filter="url(#filter0_d_0_16078)">
<path fill-rule="evenodd" clip-rule="evenodd" d="M11 0H13V2.05493C17.1716 2.51608 20.4839 5.82838 20.9451 10H23V12H20.9451C20.4839 16.1716 17.1716 19.4839 13 19.9451V22H11V19.9451C6.82838 19.4839 3.51608 16.1716 3.05493 12H1V10H3.05493C3.51608 5.82838 6.82838 2.51608 11 2.05493V0ZM19 11C19 7.13401 15.866 4 12 4C8.13401 4 5 7.13401 5 11C5 14.866 8.13401 18 12 18C15.866 18 19 14.866 19 11Z" fill="#C6E7FF"/>
</g>
<g filter="url(#filter1_d_0_16078)">
<circle cx="12" cy="11" r="3" fill="#4695FF"/>
</g>
<defs>
<filter id="filter0_d_0_16078" x="0" y="0" width="24" height="24" filterUnits="userSpaceOnUse" color-interpolation-filters="sRGB">
<feFlood flood-opacity="0" result="BackgroundImageFix"/>
<feColorMatrix in="SourceAlpha" type="matrix" values="0 0 0 0 0 0 0 0 0 0 0 0 0 0 0 0 0 0 127 0" result="hardAlpha"/>
<feOffset dy="1"/>
<feGaussianBlur stdDeviation="0.5"/>
<feColorMatrix type="matrix" values="0 0 0 0 0 0 0 0 0 0 0 0 0 0 0 0 0 0 0.5 0"/>
<feBlend mode="normal" in2="BackgroundImageFix" result="effect1_dropShadow_0_16078"/>
<feBlend mode="normal" in="SourceGraphic" in2="effect1_dropShadow_0_16078" result="shape"/>
</filter>
<filter id="filter1_d_0_16078" x="8" y="8" width="8" height="8" filterUnits="userSpaceOnUse" color-interpolation-filters="sRGB">
<feFlood flood-opacity="0" result="BackgroundImageFix"/>
<feColorMatrix in="SourceAlpha" type="matrix" values="0 0 0 0 0 0 0 0 0 0 0 0 0 0 0 0 0 0 127 0" result="hardAlpha"/>
<feOffset dy="1"/>
<feGaussianBlur stdDeviation="0.5"/>
<feColorMatrix type="matrix" values="0 0 0 0 0 0 0 0 0 0 0 0 0 0 0 0 0 0 0.5 0"/>
<feBlend mode="normal" in2="BackgroundImageFix" result="effect1_dropShadow_0_16078"/>
<feBlend mode="normal" in="SourceGraphic" in2="effect1_dropShadow_0_16078" result="shape"/>
</filter>
</defs>
</svg>
