<svg width="22" height="24" viewBox="0 0 22 24" fill="none" xmlns="http://www.w3.org/2000/svg">
<g opacity="0.8" filter="url(#filter0_d_0_11014)">
<path fill-rule="evenodd" clip-rule="evenodd" d="M2 8.89263C2 11.3369 2.98614 13.5508 4.58228 15.1583L4.57476 15.1582L10.8926 21.4761L17.1325 15.2363L17.1247 15.2361C18.7668 13.6227 19.7853 11.3766 19.7853 8.89263C19.7853 3.98137 15.8039 0 10.8926 0C5.98137 0 2 3.98137 2 8.89263ZM6.18428 13.6163C4.97283 12.4088 4.22316 10.7383 4.22316 8.89263C4.22316 5.20918 7.20918 2.22316 10.8926 2.22316C14.5761 2.22316 17.5621 5.20918 17.5621 8.89263C17.5621 10.7639 16.7914 12.4552 15.5502 13.6664L15.5582 13.6665L10.8926 18.3321L6.17684 13.6163L6.18428 13.6163Z" fill="#C6E7FF"/>
</g>
<g filter="url(#filter1_d_0_11014)">
<circle cx="10.8926" cy="9.32558" r="3.33474" fill="#4695FF"/>
</g>
<defs>
<filter id="filter0_d_0_11014" x="1" y="0" width="19.7853" height="23.4761" filterUnits="userSpaceOnUse" color-interpolation-filters="sRGB">
<feFlood flood-opacity="0" result="BackgroundImageFix"/>
<feColorMatrix in="SourceAlpha" type="matrix" values="0 0 0 0 0 0 0 0 0 0 0 0 0 0 0 0 0 0 127 0" result="hardAlpha"/>
<feOffset dy="1"/>
<feGaussianBlur stdDeviation="0.5"/>
<feColorMatrix type="matrix" values="0 0 0 0 0 0 0 0 0 0 0 0 0 0 0 0 0 0 0.5 0"/>
<feBlend mode="normal" in2="BackgroundImageFix" result="effect1_dropShadow_0_11014"/>
<feBlend mode="normal" in="SourceGraphic" in2="effect1_dropShadow_0_11014" result="shape"/>
</filter>
<filter id="filter1_d_0_11014" x="6.55786" y="5.99084" width="8.66943" height="8.66949" filterUnits="userSpaceOnUse" color-interpolation-filters="sRGB">
<feFlood flood-opacity="0" result="BackgroundImageFix"/>
<feColorMatrix in="SourceAlpha" type="matrix" values="0 0 0 0 0 0 0 0 0 0 0 0 0 0 0 0 0 0 127 0" result="hardAlpha"/>
<feOffset dy="1"/>
<feGaussianBlur stdDeviation="0.5"/>
<feColorMatrix type="matrix" values="0 0 0 0 0 0 0 0 0 0 0 0 0 0 0 0 0 0 0.5 0"/>
<feBlend mode="normal" in2="BackgroundImageFix" result="effect1_dropShadow_0_11014"/>
<feBlend mode="normal" in="SourceGraphic" in2="effect1_dropShadow_0_11014" result="shape"/>
</filter>
</defs>
</svg>
