<svg width="22" height="23" viewBox="0 0 22 23" fill="none" xmlns="http://www.w3.org/2000/svg">
<g filter="url(#filter0_d_1710_59465)">
<path d="M14 20.75C10.2875 20.75 7.25 17.7125 7.25 14C7.25 10.2875 10.2875 7.25 14 7.25C17.7125 7.25 20.75 10.2875 20.75 14C20.75 17.7125 17.7125 20.75 14 20.75ZM14 8.75C11.1125 8.75 8.75 11.1125 8.75 14C8.75 16.8875 11.1125 19.25 14 19.25C16.8875 19.25 19.25 16.8875 19.25 14C19.25 11.1125 16.8875 8.75 14 8.75Z" fill="#A2BED3"/>
</g>
<g filter="url(#filter1_d_1710_59465)">
<path d="M17.384 12.116H16.436L16.844 10.556V10.52C16.844 10.46 16.796 10.4 16.724 10.4H15.968C15.908 10.4 15.86 10.448 15.848 10.496L15.44 12.116H13.544L13.952 10.556V10.52C13.952 10.46 13.904 10.4 13.832 10.4H13.076C13.016 10.4 12.968 10.448 12.956 10.496L12.536 12.104H11.48C11.42 12.104 11.384 12.14 11.36 12.188L11.168 12.908V12.932C11.168 12.992 11.216 13.052 11.288 13.052H12.284L11.816 14.876H10.796C10.736 14.876 10.7 14.912 10.676 14.96L10.484 15.68V15.704C10.484 15.764 10.532 15.824 10.604 15.824H11.564L11.156 17.408V17.432C11.156 17.492 11.204 17.552 11.276 17.552H12.032C12.092 17.552 12.14 17.516 12.152 17.456L12.572 15.812H14.456L14.048 17.396V17.42C14.048 17.48 14.096 17.54 14.168 17.54H14.924C14.984 17.54 15.032 17.504 15.044 17.444L15.464 15.8H16.508C16.568 15.8 16.616 15.764 16.628 15.704L16.82 14.984V14.96C16.82 14.9 16.772 14.84 16.7 14.84H15.716L16.184 13.016H17.192C17.252 13.016 17.3 12.98 17.312 12.92L17.504 12.2V12.176C17.504 12.164 17.444 12.116 17.384 12.116V12.116ZM14.72 14.9H12.824L13.292 13.076H15.176L14.72 14.9Z" fill="#4695FF"/>
</g>
<g filter="url(#filter2_d_1710_59465)">
<path d="M5 11H2C1.5875 11 1.25 10.6625 1.25 10.25C1.25 9.8375 1.5875 9.5 2 9.5H5C5.4125 9.5 5.75 9.8375 5.75 10.25C5.75 10.6625 5.4125 11 5 11ZM5 18.5H2C1.5875 18.5 1.25 18.1625 1.25 17.75C1.25 17.3375 1.5875 17 2 17H5C5.4125 17 5.75 17.3375 5.75 17.75C5.75 18.1625 5.4125 18.5 5 18.5ZM20 3.5H2C1.5875 3.5 1.25 3.1625 1.25 2.75C1.25 2.3375 1.5875 2 2 2H20C20.4125 2 20.75 2.3375 20.75 2.75C20.75 3.1625 20.4125 3.5 20 3.5Z" fill="#A2BED3"/>
</g>
<defs>
<filter id="filter0_d_1710_59465" x="6.25" y="7.25" width="15.5" height="15.5" filterUnits="userSpaceOnUse" color-interpolation-filters="sRGB">
<feFlood flood-opacity="0" result="BackgroundImageFix"/>
<feColorMatrix in="SourceAlpha" type="matrix" values="0 0 0 0 0 0 0 0 0 0 0 0 0 0 0 0 0 0 127 0" result="hardAlpha"/>
<feOffset dy="1"/>
<feGaussianBlur stdDeviation="0.5"/>
<feComposite in2="hardAlpha" operator="out"/>
<feColorMatrix type="matrix" values="0 0 0 0 0 0 0 0 0 0 0 0 0 0 0 0 0 0 0.5 0"/>
<feBlend mode="normal" in2="BackgroundImageFix" result="effect1_dropShadow_1710_59465"/>
<feBlend mode="normal" in="SourceGraphic" in2="effect1_dropShadow_1710_59465" result="shape"/>
</filter>
<filter id="filter1_d_1710_59465" x="9.48401" y="10.4" width="9.02002" height="9.15198" filterUnits="userSpaceOnUse" color-interpolation-filters="sRGB">
<feFlood flood-opacity="0" result="BackgroundImageFix"/>
<feColorMatrix in="SourceAlpha" type="matrix" values="0 0 0 0 0 0 0 0 0 0 0 0 0 0 0 0 0 0 127 0" result="hardAlpha"/>
<feOffset dy="1"/>
<feGaussianBlur stdDeviation="0.5"/>
<feComposite in2="hardAlpha" operator="out"/>
<feColorMatrix type="matrix" values="0 0 0 0 0 0 0 0 0 0 0 0 0 0 0 0 0 0 0.5 0"/>
<feBlend mode="normal" in2="BackgroundImageFix" result="effect1_dropShadow_1710_59465"/>
<feBlend mode="normal" in="SourceGraphic" in2="effect1_dropShadow_1710_59465" result="shape"/>
</filter>
<filter id="filter2_d_1710_59465" x="0.25" y="2" width="21.5" height="18.5" filterUnits="userSpaceOnUse" color-interpolation-filters="sRGB">
<feFlood flood-opacity="0" result="BackgroundImageFix"/>
<feColorMatrix in="SourceAlpha" type="matrix" values="0 0 0 0 0 0 0 0 0 0 0 0 0 0 0 0 0 0 127 0" result="hardAlpha"/>
<feOffset dy="1"/>
<feGaussianBlur stdDeviation="0.5"/>
<feComposite in2="hardAlpha" operator="out"/>
<feColorMatrix type="matrix" values="0 0 0 0 0 0 0 0 0 0 0 0 0 0 0 0 0 0 0.5 0"/>
<feBlend mode="normal" in2="BackgroundImageFix" result="effect1_dropShadow_1710_59465"/>
<feBlend mode="normal" in="SourceGraphic" in2="effect1_dropShadow_1710_59465" result="shape"/>
</filter>
</defs>
</svg>
