<svg width="24" height="24" viewBox="0 0 24 24" fill="none" xmlns="http://www.w3.org/2000/svg">
<g filter="url(#filter0_d_0_16086)">
<path fill-rule="evenodd" clip-rule="evenodd" d="M20.683 9.8415C20.683 4.40619 16.2768 0 10.8415 0C5.40619 0 1 4.40619 1 9.8415C1 15.2768 5.40619 19.683 10.8415 19.683C13.2555 19.683 15.4664 18.8139 17.1786 17.3716L21.4925 21.6854L21.5024 21.6952C21.8326 22.0148 22.3593 22.0116 22.6854 21.6854C23.0149 21.356 23.0149 20.8219 22.6854 20.4925L18.3716 16.1786C19.8139 14.4664 20.683 12.2555 20.683 9.8415ZM2.68712 9.8415C2.68712 5.33796 6.33796 1.68712 10.8415 1.68712C15.3451 1.68712 18.9959 5.33796 18.9959 9.8415C18.9959 14.3451 15.3451 17.9959 10.8415 17.9959C6.33796 17.9959 2.68712 14.3451 2.68712 9.8415Z" fill="#A2BED3"/>
<path d="M10.8408 5.62371C11.3021 5.62371 11.6768 5.99387 11.6843 6.45332L11.6844 6.4673V8.99794H14.2151C14.681 8.99794 15.0586 9.37562 15.0586 9.8415C15.0586 10.3027 14.6885 10.6775 14.229 10.685L14.2151 10.6851H11.6844V13.2157C11.6844 13.6816 11.3067 14.0593 10.8408 14.0593C10.3796 14.0593 10.0048 13.6892 9.99741 13.2297L9.99728 13.2157V10.6851H7.46661C7.00072 10.6851 6.62305 10.3074 6.62305 9.8415C6.62305 9.38029 6.99321 9.00551 7.45266 8.99808L7.46663 8.99794H9.99728V6.46727C9.99728 6.00139 10.375 5.62371 10.8408 5.62371Z" fill="#4695FF"/>
</g>
<defs>
<filter id="filter0_d_0_16086" x="0" y="0" width="23.9316" height="23.9325" filterUnits="userSpaceOnUse" color-interpolation-filters="sRGB">
<feFlood flood-opacity="0" result="BackgroundImageFix"/>
<feColorMatrix in="SourceAlpha" type="matrix" values="0 0 0 0 0 0 0 0 0 0 0 0 0 0 0 0 0 0 127 0" result="hardAlpha"/>
<feOffset dy="1"/>
<feGaussianBlur stdDeviation="0.5"/>
<feColorMatrix type="matrix" values="0 0 0 0 0 0 0 0 0 0 0 0 0 0 0 0 0 0 0.5 0"/>
<feBlend mode="normal" in2="BackgroundImageFix" result="effect1_dropShadow_0_16086"/>
<feBlend mode="normal" in="SourceGraphic" in2="effect1_dropShadow_0_16086" result="shape"/>
</filter>
</defs>
</svg>
