<svg width="24" height="24" viewBox="0 0 24 24" fill="none" xmlns="http://www.w3.org/2000/svg">
<g id="&#229;&#183;&#165;&#229;&#133;&#183;&#230;&#160;&#143;-1&#229;&#164;&#135;&#228;&#187;&#189; 5">
<g id="&#229;&#183;&#165;&#229;&#133;&#183;&#230;&#160;&#143;-1">
<g id="&#229;&#183;&#165;&#229;&#133;&#183;&#230;&#160;&#143;/icon22*22">
<g id="&#230;&#148;&#190;&#229;&#164;&#167; 2">
<g id="&#230;&#148;&#190;&#229;&#164;&#167;" filter="url(#filter0_d_0_16089)">
<g id="&#229;&#189;&#162;&#231;&#138;&#182;">
<mask id="path-1-inside-1_0_16089" fill="white">
<path fill-rule="evenodd" clip-rule="evenodd" d="M20.683 9.8415C20.683 4.40619 16.2768 0 10.8415 0C5.40619 0 1 4.40619 1 9.8415C1 15.2768 5.40619 19.683 10.8415 19.683C13.2555 19.683 15.4664 18.8139 17.1786 17.3716L21.4925 21.6854L21.5024 21.6952C21.8326 22.0148 22.3593 22.0116 22.6854 21.6854C23.0149 21.356 23.0149 20.8219 22.6854 20.4925L18.3716 16.1786C19.8139 14.4664 20.683 12.2555 20.683 9.8415ZM2.68712 9.8415C2.68712 5.33796 6.33796 1.68712 10.8415 1.68712C15.3451 1.68712 18.9959 5.33796 18.9959 9.8415C18.9959 14.3451 15.3451 17.9959 10.8415 17.9959C6.33796 17.9959 2.68712 14.3451 2.68712 9.8415Z"/>
</mask>
<path fill-rule="evenodd" clip-rule="evenodd" d="M20.683 9.8415C20.683 4.40619 16.2768 0 10.8415 0C5.40619 0 1 4.40619 1 9.8415C1 15.2768 5.40619 19.683 10.8415 19.683C13.2555 19.683 15.4664 18.8139 17.1786 17.3716L21.4925 21.6854L21.5024 21.6952C21.8326 22.0148 22.3593 22.0116 22.6854 21.6854C23.0149 21.356 23.0149 20.8219 22.6854 20.4925L18.3716 16.1786C19.8139 14.4664 20.683 12.2555 20.683 9.8415ZM2.68712 9.8415C2.68712 5.33796 6.33796 1.68712 10.8415 1.68712C15.3451 1.68712 18.9959 5.33796 18.9959 9.8415C18.9959 14.3451 15.3451 17.9959 10.8415 17.9959C6.33796 17.9959 2.68712 14.3451 2.68712 9.8415Z" fill="#A2BED3"/>
<path d="M17.1786 17.3716L18.5928 15.9574L17.2944 14.659L15.89 15.842L17.1786 17.3716ZM21.4925 21.6854L20.0782 23.0997L20.0877 23.109L21.4925 21.6854ZM21.5024 21.6952L20.0977 23.1188L20.1045 23.1256L20.1113 23.1322L21.5024 21.6952ZM22.6854 21.6854L21.2713 20.2712L21.2712 20.2713L22.6854 21.6854ZM22.6854 20.4925L21.2712 21.9067L21.2713 21.9068L22.6854 20.4925ZM18.3716 16.1786L16.842 14.89L15.659 16.2944L16.9574 17.5928L18.3716 16.1786ZM10.8415 2C15.1723 2 18.683 5.51077 18.683 9.8415H22.683C22.683 3.30162 17.3814 -2 10.8415 -2V2ZM3 9.8415C3 5.51076 6.51076 2 10.8415 2V-2C4.30163 -2 -1 3.30163 -1 9.8415H3ZM10.8415 17.683C6.51077 17.683 3 14.1723 3 9.8415H-1C-1 16.3814 4.30162 21.683 10.8415 21.683V17.683ZM15.89 15.842C14.525 16.9919 12.7666 17.683 10.8415 17.683V21.683C13.7444 21.683 16.4078 20.6359 18.4671 18.9012L15.89 15.842ZM22.9067 20.2712L18.5928 15.9574L15.7644 18.7858L20.0783 23.0997L22.9067 20.2712ZM22.9072 20.2716L22.8972 20.2618L20.0877 23.109L20.0977 23.1188L22.9072 20.2716ZM21.2712 20.2713C21.7184 19.824 22.4404 19.8196 22.8935 20.2583L20.1113 23.1322C21.2247 24.21 23.0002 24.1992 24.0997 23.0996L21.2712 20.2713ZM21.2713 21.9068C20.8196 21.4551 20.8196 20.7228 21.2713 20.2712L24.0996 23.0997C25.2101 21.9892 25.2101 20.1887 24.0996 19.0782L21.2713 21.9068ZM16.9574 17.5928L21.2712 21.9067L24.0997 19.0783L19.7858 14.7644L16.9574 17.5928ZM18.683 9.8415C18.683 11.7666 17.9919 13.525 16.842 14.89L19.9012 17.4671C21.6359 15.4079 22.683 12.7444 22.683 9.8415H18.683ZM10.8415 -0.312883C5.23339 -0.312883 0.687117 4.23339 0.687117 9.8415H4.68712C4.68712 6.44253 7.44253 3.68712 10.8415 3.68712V-0.312883ZM20.9959 9.8415C20.9959 4.23338 16.4496 -0.312883 10.8415 -0.312883V3.68712C14.2405 3.68712 16.9959 6.44253 16.9959 9.8415H20.9959ZM10.8415 19.9959C16.4496 19.9959 20.9959 15.4496 20.9959 9.8415H16.9959C16.9959 13.2405 14.2405 15.9959 10.8415 15.9959V19.9959ZM0.687117 9.8415C0.687117 15.4496 5.23338 19.9959 10.8415 19.9959V15.9959C7.44253 15.9959 4.68712 13.2405 4.68712 9.8415H0.687117Z" fill="#A3C0D5" mask="url(#path-1-inside-1_0_16089)"/>
</g>
<path id="&#232;&#183;&#175;&#229;&#190;&#132;" d="M14.2151 8.99795C14.681 8.99795 15.0586 9.37562 15.0586 9.84151C15.0586 10.3027 14.6885 10.6775 14.229 10.685L14.2151 10.6851H7.46661C7.00072 10.6851 6.62305 10.3074 6.62305 9.84151C6.62305 9.38029 6.99321 9.00551 7.45266 8.99808L7.46663 8.99795H14.2151Z" fill="#4695FF"/>
</g>
</g>
</g>
</g>
</g>
<defs>
<filter id="filter0_d_0_16089" x="0" y="0" width="23.9316" height="23.9325" filterUnits="userSpaceOnUse" color-interpolation-filters="sRGB">
<feFlood flood-opacity="0" result="BackgroundImageFix"/>
<feColorMatrix in="SourceAlpha" type="matrix" values="0 0 0 0 0 0 0 0 0 0 0 0 0 0 0 0 0 0 127 0" result="hardAlpha"/>
<feOffset dy="1"/>
<feGaussianBlur stdDeviation="0.5"/>
<feColorMatrix type="matrix" values="0 0 0 0 0 0 0 0 0 0 0 0 0 0 0 0 0 0 0.5 0"/>
<feBlend mode="normal" in2="BackgroundImageFix" result="effect1_dropShadow_0_16089"/>
<feBlend mode="normal" in="SourceGraphic" in2="effect1_dropShadow_0_16089" result="shape"/>
</filter>
</defs>
</svg>
