<svg width="15" height="14" viewBox="0 0 15 14" fill="none" xmlns="http://www.w3.org/2000/svg">
<path d="M12.737 13.7872H2.75592C1.65356 13.7872 0.759766 12.8937 0.759766 11.7911V9.29581C0.759766 9.02027 0.983342 8.79685 1.25871 8.79685H2.25697C2.53252 8.79685 2.75592 9.02027 2.75592 9.29581V10.793C2.75592 11.3443 3.20273 11.7911 3.75399 11.7911H11.7389C12.2902 11.7911 12.737 11.3443 12.737 10.793V9.29581C12.737 9.02027 12.9604 8.79685 13.2361 8.79685H14.2342C14.5097 8.79685 14.7331 9.02027 14.7331 9.29581V11.7911C14.7331 12.8937 13.8395 13.7872 12.737 13.7872ZM3.68951 3.99636C3.8914 3.7945 4.21896 3.7945 4.42087 3.99636L6.74854 6.32405V1.29923C6.74854 1.02369 6.97199 0.800049 7.2475 0.800049H8.24555C8.52114 0.800049 8.7447 1.02369 8.7447 1.29923V6.32405L11.0724 3.99636C11.2743 3.7945 11.6017 3.7945 11.8036 3.99636L12.535 4.7279C12.7369 4.92981 12.7369 5.25719 12.535 5.45926L8.4133 9.58106C8.39547 9.59884 8.07479 9.79486 7.75211 9.79501C7.42592 9.79517 7.09776 9.59904 7.07991 9.58106L2.95799 5.45926C2.75608 5.25717 2.75608 4.92981 2.95799 4.7279L3.68951 3.99636Z" fill="white"/>
</svg>
