<svg width="10" height="10" viewBox="0 0 10 10" fill="none" xmlns="http://www.w3.org/2000/svg">
<g opacity="0.5">
<path d="M3.69454 7.68007V5.22246H6.56687V7.68007H7.40399V2.19653H6.56687V4.50822H3.69454V2.19653H2.85742V7.68007H3.69454Z" fill="#A5A8B6"/>
<path fill-rule="evenodd" clip-rule="evenodd" d="M8.26661 1.10682C7.43502 0.415642 6.36625 0 5.2004 0C4.06458 0 3.0209 0.394508 2.19891 1.05397C1.1024 1.93368 0.400391 3.28486 0.400391 4.80001C0.400391 6.57119 1.3597 8.11832 2.78709 8.95014C3.49611 9.36333 4.32061 9.60002 5.2004 9.60002C6.36115 9.60002 7.42566 9.18801 8.25568 8.50226C9.3213 7.62185 10.0004 6.29024 10.0004 4.80001C10.0004 3.31489 9.32595 1.98729 8.26661 1.10682ZM2.4992 1.42835C3.26015 0.817863 4.20375 0.47998 5.20032 0.47998C6.22299 0.47998 7.18964 0.835892 7.95972 1.47594C8.94179 2.2922 9.52033 3.49834 9.52033 4.79999C9.52033 6.10612 8.93776 7.31601 7.94987 8.13219C7.18129 8.76719 6.21856 9.12 5.20032 9.12C4.42598 9.12 3.68251 8.91642 3.02869 8.5354C1.70887 7.76627 0.88031 6.35547 0.88031 4.79999C0.88031 3.47191 1.48278 2.2438 2.4992 1.42835Z" fill="#A5A8B6"/>
</g>
</svg>
