<svg width="15" height="15" viewBox="0 0 15 15" fill="none" xmlns="http://www.w3.org/2000/svg">
<path d="M8.16347 7.51831L12.0494 3.65252C12.2332 3.46971 12.2341 3.17345 12.0513 2.98971C11.868 2.80548 11.5722 2.80503 11.3885 2.98784L7.50159 6.85408L3.64847 2.98923C3.46614 2.80642 3.1694 2.80548 2.98566 2.9883C2.80236 3.17111 2.80191 3.46782 2.98472 3.65159L6.83691 7.51549L2.95285 11.3789C2.7691 11.5617 2.76817 11.858 2.95098 12.0417C3.04238 12.1336 3.16285 12.18 3.28332 12.18C3.40286 12.18 3.52238 12.1346 3.6138 12.0436L7.49881 8.17926L11.3871 12.0793C11.4785 12.1711 11.5985 12.2171 11.719 12.2171C11.839 12.2171 11.9585 12.1711 12.0499 12.0802C12.2332 11.8974 12.2337 11.6011 12.0509 11.4174L8.16347 7.51831Z" fill="#C6E7FF"/>
</svg>
