<svg width="15" height="15" viewBox="0 0 15 15" fill="none" xmlns="http://www.w3.org/2000/svg">
<path d="M5.14051 9.85823C5.31303 10.0308 5.31303 10.3107 5.14051 10.4833L2.75418 12.8706C2.58164 13.0431 2.30193 13.0431 2.1294 12.8706C1.95687 12.698 1.95687 12.4181 2.1294 12.2455L4.5157 9.85824C4.68824 9.68564 4.96796 9.68564 5.14048 9.85824L5.14051 9.85823ZM12.8706 4.98551C13.0524 5.16743 13.0411 5.46569 12.8461 5.63331L10.0095 8.07043L10.0177 8.10399C10.3542 9.51472 9.96545 11.0203 8.93918 12.0942L8.90549 12.1291L8.87205 12.1629C8.6998 12.3372 8.41872 12.338 8.24549 12.1647L2.76133 6.67831C2.58879 6.50571 2.58879 6.22588 2.76133 6.05328C3.86883 4.94532 5.46396 4.53987 6.93577 4.93455L6.97247 4.94462L9.36818 2.15403C9.53405 1.96079 9.82792 1.94778 10.0103 2.12401L12.8706 4.98551ZM11.9088 5.27341L9.72794 3.09163L7.45291 5.74169C7.3954 5.80869 7.31914 5.85691 7.23397 5.88014C7.1488 5.90337 7.05863 5.90054 6.97509 5.87202L6.93697 5.85869C5.85386 5.48565 4.6571 5.67574 3.74552 6.36517L3.71852 6.38582L8.53788 11.2071L8.5486 11.1932C9.22327 10.3094 9.42696 9.15324 9.09843 8.09044L9.0853 8.04879C9.06007 7.96659 9.05936 7.87882 9.08325 7.79622C9.10714 7.71363 9.15459 7.6398 9.2198 7.58378L11.9088 5.27341H11.9088Z" fill="#C6E7FF"/>
</svg>
