<svg width="22" height="21" viewBox="0 0 22 21" fill="none" xmlns="http://www.w3.org/2000/svg">
<path fill-rule="evenodd" clip-rule="evenodd" d="M0.886207 10.2088C0.902921 12.9989 2.03674 15.534 3.85644 17.3769C4.81599 18.3484 5.96602 19.1276 7.24362 19.6506C8.42642 20.1345 9.68454 20.3825 10.9421 20.3925C12.1993 20.4026 13.4549 20.1748 14.6319 19.7098C15.9031 19.2072 17.0442 18.4465 17.9919 17.4902C19.7897 15.6764 20.8935 13.1592 20.8768 10.3691C20.8601 7.57933 19.726 5.04424 17.9063 3.20138C16.0721 1.34382 13.4442 0.401309 10.8222 0.380282C8.19985 0.359251 5.58318 1.2597 3.77084 3.08801C1.97304 4.9019 0.869495 7.41904 0.886207 10.2088ZM5.20709 4.57594C6.65746 3.111 8.75163 2.38949 10.8501 2.40599L10.85 2.40599C12.9483 2.42249 15.0508 3.17697 16.5181 4.66488C17.392 5.55028 18.068 6.63565 18.4715 7.84504C18.5837 8.251 18.4384 8.44111 18.0368 8.41604C17.3311 8.38308 16.1883 8.34964 15.1902 8.32044L15.1901 8.32044L15.1901 8.32044L15.19 8.32043L15.19 8.32043C14.3264 8.29517 13.5712 8.27307 13.301 8.25718C13.8043 8.83533 14.1122 9.59165 14.1169 10.4171C14.1221 11.3169 13.7663 12.129 13.1868 12.7141C12.9799 12.9231 12.7445 13.103 12.4869 13.2476C12.0014 13.5206 11.4586 13.6547 10.9149 13.6507C10.3709 13.6461 9.82655 13.5035 9.33783 13.2228C9.07849 13.0742 8.84082 12.8906 8.63165 12.6783C8.04536 12.084 7.6802 11.2663 7.67501 10.3664C7.67026 9.54097 7.96923 8.78947 8.46638 8.21917C8.19617 8.2308 7.44098 8.24103 6.57753 8.25271L6.57744 8.25271L6.57711 8.25272C5.57928 8.26623 4.43696 8.28169 3.73149 8.30355C3.3302 8.32233 3.18294 8.12993 3.2902 7.72567C3.68006 6.52249 4.34356 5.44765 5.20709 4.57594ZM12.6746 8.5533C11.7383 7.60509 9.9919 7.59109 9.06689 8.52437C8.60817 8.98721 8.32648 9.6297 8.33074 10.3416C8.33501 11.054 8.62443 11.7009 9.08873 12.1713C9.26769 12.3523 9.47232 12.5073 9.69693 12.6296C10.443 13.0363 11.3527 13.0435 12.094 12.6488C12.3169 12.5302 12.5199 12.3783 12.6965 12.2002C13.1555 11.7372 13.4371 11.0949 13.4329 10.3826C13.4286 9.67067 13.1392 9.02357 12.6747 8.5533L12.6746 8.5533ZM11.9344 10.3674C11.9369 10.7868 11.6989 11.1478 11.351 11.3181C11.0631 11.4589 10.7146 11.4561 10.4247 11.3107C10.0747 11.1348 9.83259 10.7698 9.83008 10.3505C9.82741 9.90611 10.095 9.52749 10.4771 9.37157C10.73 9.2684 11.0215 9.27073 11.2756 9.37798C11.6596 9.54002 11.9317 9.92297 11.9344 10.3674ZM12.6114 18.1251C14.1476 17.8095 15.5178 17.0445 16.5825 15.9704C17.6947 14.8483 18.4736 13.3892 18.7616 11.7529C18.8661 11.3093 18.6761 11.1717 18.3447 11.1797C17.6761 11.16 17.0074 11.1574 16.3708 11.2737C14.1028 11.6881 13.2973 12.789 12.9108 15.3355C12.794 16.1054 12.7146 16.9849 12.6493 17.7089L12.6493 17.7089L12.6492 17.7097C12.6361 17.8552 12.6236 17.9944 12.6114 18.1251ZM9.15276 17.7693C9.16724 17.9113 9.1811 18.0472 9.19449 18.1751C7.65431 17.8347 6.27495 17.0476 5.19708 15.9563C4.07148 14.8163 3.27468 13.3445 2.96722 11.7034C2.85717 11.258 3.0457 11.1234 3.37704 11.1368C4.04547 11.1278 4.71442 11.136 5.35228 11.2625C7.62559 11.7135 8.44451 12.8275 8.86168 15.3804C8.98826 16.1562 9.0786 17.0421 9.15276 17.7693Z" fill="url(#paint0_linear_2612_70174)" fill-opacity="0.3"/>
<path fill-rule="evenodd" clip-rule="evenodd" d="M0.886207 10.2088C0.902921 12.9989 2.03674 15.534 3.85644 17.3769C4.81599 18.3484 5.96602 19.1276 7.24362 19.6506C8.42642 20.1345 9.68454 20.3825 10.9421 20.3925C12.1993 20.4026 13.4549 20.1748 14.6319 19.7098C15.9031 19.2072 17.0442 18.4465 17.9919 17.4902C19.7897 15.6764 20.8935 13.1592 20.8768 10.3691C20.8601 7.57933 19.726 5.04424 17.9063 3.20138C16.0721 1.34382 13.4442 0.401309 10.8222 0.380282C8.19985 0.359251 5.58318 1.2597 3.77084 3.08801C1.97304 4.9019 0.869495 7.41904 0.886207 10.2088ZM5.20709 4.57594C6.65746 3.111 8.75163 2.38949 10.8501 2.40599L10.85 2.40599C12.9483 2.42249 15.0508 3.17697 16.5181 4.66488C17.392 5.55028 18.068 6.63565 18.4715 7.84504C18.5837 8.251 18.4384 8.44111 18.0368 8.41604C17.3311 8.38308 16.1883 8.34964 15.1902 8.32044L15.1901 8.32044L15.1901 8.32044L15.19 8.32043L15.19 8.32043C14.3264 8.29517 13.5712 8.27307 13.301 8.25718C13.8043 8.83533 14.1122 9.59165 14.1169 10.4171C14.1221 11.3169 13.7663 12.129 13.1868 12.7141C12.9799 12.9231 12.7445 13.103 12.4869 13.2476C12.0014 13.5206 11.4586 13.6547 10.9149 13.6507C10.3709 13.6461 9.82655 13.5035 9.33783 13.2228C9.07849 13.0742 8.84082 12.8906 8.63165 12.6783C8.04536 12.084 7.6802 11.2663 7.67501 10.3664C7.67026 9.54097 7.96923 8.78947 8.46638 8.21917C8.19617 8.2308 7.44098 8.24103 6.57753 8.25271L6.57744 8.25271L6.57711 8.25272C5.57928 8.26623 4.43696 8.28169 3.73149 8.30355C3.3302 8.32233 3.18294 8.12993 3.2902 7.72567C3.68006 6.52249 4.34356 5.44765 5.20709 4.57594ZM12.6746 8.5533C11.7383 7.60509 9.9919 7.59109 9.06689 8.52437C8.60817 8.98721 8.32648 9.6297 8.33074 10.3416C8.33501 11.054 8.62443 11.7009 9.08873 12.1713C9.26769 12.3523 9.47232 12.5073 9.69693 12.6296C10.443 13.0363 11.3527 13.0435 12.094 12.6488C12.3169 12.5302 12.5199 12.3783 12.6965 12.2002C13.1555 11.7372 13.4371 11.0949 13.4329 10.3826C13.4286 9.67067 13.1392 9.02357 12.6747 8.5533L12.6746 8.5533ZM11.9344 10.3674C11.9369 10.7868 11.6989 11.1478 11.351 11.3181C11.0631 11.4589 10.7146 11.4561 10.4247 11.3107C10.0747 11.1348 9.83259 10.7698 9.83008 10.3505C9.82741 9.90611 10.095 9.52749 10.4771 9.37157C10.73 9.2684 11.0215 9.27073 11.2756 9.37798C11.6596 9.54002 11.9317 9.92297 11.9344 10.3674ZM12.6114 18.1251C14.1476 17.8095 15.5178 17.0445 16.5825 15.9704C17.6947 14.8483 18.4736 13.3892 18.7616 11.7529C18.8661 11.3093 18.6761 11.1717 18.3447 11.1797C17.6761 11.16 17.0074 11.1574 16.3708 11.2737C14.1028 11.6881 13.2973 12.789 12.9108 15.3355C12.794 16.1054 12.7146 16.9849 12.6493 17.7089L12.6493 17.7089L12.6492 17.7097C12.6361 17.8552 12.6236 17.9944 12.6114 18.1251ZM9.15276 17.7693C9.16724 17.9113 9.1811 18.0472 9.19449 18.1751C7.65431 17.8347 6.27495 17.0476 5.19708 15.9563C4.07148 14.8163 3.27468 13.3445 2.96722 11.7034C2.85717 11.258 3.0457 11.1234 3.37704 11.1368C4.04547 11.1278 4.71442 11.136 5.35228 11.2625C7.62559 11.7135 8.44451 12.8275 8.86168 15.3804C8.98826 16.1562 9.0786 17.0421 9.15276 17.7693Z" fill="url(#paint1_radial_2612_70174)"/>
<ellipse cx="10.8833" cy="1.5553" rx="1.08329" ry="1.06115" fill="white"/>
<defs>
<linearGradient id="paint0_linear_2612_70174" x1="10.7586" y1="0.379503" x2="10.5326" y2="20.388" gradientUnits="userSpaceOnUse">
<stop stop-color="#A3C0D5"/>
<stop offset="1" stop-color="#A3C0D5" stop-opacity="0"/>
</linearGradient>
<radialGradient id="paint1_radial_2612_70174" cx="0" cy="0" r="1" gradientUnits="userSpaceOnUse" gradientTransform="translate(10.9031 10.4809) rotate(89.4008) scale(9.91295 9.90004)">
<stop offset="0.313039" stop-color="white"/>
<stop offset="1" stop-color="white" stop-opacity="0.3"/>
</radialGradient>
</defs>
</svg>
