<svg width="21" height="21" viewBox="0 0 21 21" fill="none" xmlns="http://www.w3.org/2000/svg">
<path fill-rule="evenodd" clip-rule="evenodd" d="M0.123511 9.94216C0.140225 12.7323 1.27404 15.2674 3.09374 17.1103C4.05329 18.0818 5.20332 18.861 6.48093 19.384C7.66373 19.8679 8.92185 20.1159 10.1794 20.1259C11.4366 20.136 12.6922 19.9082 13.8692 19.4432C15.1404 18.9406 16.2815 18.1799 17.2292 17.2236C19.027 15.4098 20.1308 12.8926 20.1141 10.1025C20.0974 7.31273 18.9633 4.77764 17.1436 2.93478C15.3094 1.07722 12.6815 0.134708 10.0596 0.11368C7.43715 0.0926495 4.82048 0.993101 3.00815 2.82141C1.21035 4.63529 0.1068 7.15244 0.123511 9.94216ZM4.4444 4.30934C5.89476 2.8444 7.98894 2.12288 10.0874 2.13939L10.0873 2.13938C12.1856 2.15588 14.2881 2.91037 15.7554 4.39828C16.6293 5.28368 17.3053 6.36905 17.7088 7.57844C17.821 7.9844 17.6757 8.17451 17.2741 8.14944C16.5684 8.11647 15.4256 8.08304 14.4275 8.05384L14.4274 8.05384L14.4274 8.05383L14.4273 8.05383L14.4273 8.05383C13.5638 8.02857 12.8085 8.00647 12.5383 7.99058C13.0416 8.56873 13.3495 9.32505 13.3542 10.1505C13.3594 11.0503 13.0036 11.8624 12.4241 12.4475C12.2172 12.6565 11.9818 12.8364 11.7242 12.981C11.2387 13.254 10.6959 13.3881 10.1522 13.3841C9.6082 13.3795 9.06385 13.2369 8.57514 12.9562C8.3158 12.8076 8.07812 12.624 7.86896 12.4117C7.28267 11.8174 6.9175 10.9997 6.91232 10.0998C6.90756 9.27437 7.20653 8.52287 7.70368 7.95257C7.43348 7.9642 6.67829 7.97443 5.81483 7.98611L5.81474 7.98611L5.81442 7.98612C4.81659 7.99962 3.67426 8.01509 2.9688 8.03695C2.56751 8.05573 2.42025 7.86332 2.5275 7.45906C2.91736 6.25589 3.58086 5.18105 4.4444 4.30934ZM11.9119 8.2867C10.9756 7.33849 9.2292 7.32448 8.30419 8.25776C7.84548 8.72061 7.56378 9.3631 7.56804 10.075C7.57231 10.7874 7.86173 11.4343 8.32604 11.9047C8.505 12.0857 8.70962 12.2407 8.93423 12.363C9.68031 12.7696 10.59 12.7769 11.3313 12.3822C11.5542 12.2636 11.7572 12.1117 11.9338 11.9336C12.3928 11.4706 12.6744 10.8283 12.6702 10.116C12.6659 9.40407 12.3765 8.75697 11.912 8.2867L11.9119 8.2867ZM11.1717 10.1008C11.1742 10.5202 10.9362 10.8812 10.5883 11.0515C10.3005 11.1923 9.95194 11.1895 9.66197 11.0441C9.31203 10.8682 9.0699 10.5032 9.06738 10.0839C9.06472 9.63951 9.33229 9.26089 9.71439 9.10497C9.96729 9.00179 10.2588 9.00413 10.5129 9.11138C10.8969 9.27342 11.1691 9.65637 11.1717 10.1008ZM11.8487 17.8585C13.3849 17.5429 14.7552 16.7779 15.8198 15.7038C16.932 14.5817 17.7109 13.1226 17.9989 11.4863C18.1034 11.0427 17.9134 10.9051 17.5821 10.9131C16.9135 10.8934 16.2447 10.8908 15.6081 11.0071C13.3401 11.4215 12.5346 12.5224 12.1481 15.0689C12.0313 15.8388 11.9519 16.7183 11.8866 17.4423L11.8866 17.4423L11.8865 17.4431C11.8734 17.5886 11.8609 17.7278 11.8487 17.8585ZM8.39006 17.5027C8.40454 17.6447 8.4184 17.7806 8.4318 17.9085C6.89161 17.5681 5.51225 16.781 4.43439 15.6897C3.30878 14.5497 2.51198 13.0779 2.20453 11.4368C2.09448 10.9914 2.283 10.8568 2.61435 10.8702C3.28277 10.8612 3.95172 10.8694 4.58958 10.9959C6.8629 11.4469 7.68181 12.5609 8.09899 15.1138C8.22557 15.8896 8.3159 16.7755 8.39006 17.5027Z" fill="url(#paint0_linear_2612_70192)" fill-opacity="0.3"/>
<path fill-rule="evenodd" clip-rule="evenodd" d="M0.123511 9.94216C0.140225 12.7323 1.27404 15.2674 3.09374 17.1103C4.05329 18.0818 5.20332 18.861 6.48093 19.384C7.66373 19.8679 8.92185 20.1159 10.1794 20.1259C11.4366 20.136 12.6922 19.9082 13.8692 19.4432C15.1404 18.9406 16.2815 18.1799 17.2292 17.2236C19.027 15.4098 20.1308 12.8926 20.1141 10.1025C20.0974 7.31273 18.9633 4.77764 17.1436 2.93478C15.3094 1.07722 12.6815 0.134708 10.0596 0.11368C7.43715 0.0926495 4.82048 0.993101 3.00815 2.82141C1.21035 4.63529 0.1068 7.15244 0.123511 9.94216ZM4.4444 4.30934C5.89476 2.8444 7.98894 2.12288 10.0874 2.13939L10.0873 2.13938C12.1856 2.15588 14.2881 2.91037 15.7554 4.39828C16.6293 5.28368 17.3053 6.36905 17.7088 7.57844C17.821 7.9844 17.6757 8.17451 17.2741 8.14944C16.5684 8.11647 15.4256 8.08304 14.4275 8.05384L14.4274 8.05384L14.4274 8.05383L14.4273 8.05383L14.4273 8.05383C13.5638 8.02857 12.8085 8.00647 12.5383 7.99058C13.0416 8.56873 13.3495 9.32505 13.3542 10.1505C13.3594 11.0503 13.0036 11.8624 12.4241 12.4475C12.2172 12.6565 11.9818 12.8364 11.7242 12.981C11.2387 13.254 10.6959 13.3881 10.1522 13.3841C9.6082 13.3795 9.06385 13.2369 8.57514 12.9562C8.3158 12.8076 8.07812 12.624 7.86896 12.4117C7.28267 11.8174 6.9175 10.9997 6.91232 10.0998C6.90756 9.27437 7.20653 8.52287 7.70368 7.95257C7.43348 7.9642 6.67829 7.97443 5.81483 7.98611L5.81474 7.98611L5.81442 7.98612C4.81659 7.99962 3.67426 8.01509 2.9688 8.03695C2.56751 8.05573 2.42025 7.86332 2.5275 7.45906C2.91736 6.25589 3.58086 5.18105 4.4444 4.30934ZM11.9119 8.2867C10.9756 7.33849 9.2292 7.32448 8.30419 8.25776C7.84548 8.72061 7.56378 9.3631 7.56804 10.075C7.57231 10.7874 7.86173 11.4343 8.32604 11.9047C8.505 12.0857 8.70962 12.2407 8.93423 12.363C9.68031 12.7696 10.59 12.7769 11.3313 12.3822C11.5542 12.2636 11.7572 12.1117 11.9338 11.9336C12.3928 11.4706 12.6744 10.8283 12.6702 10.116C12.6659 9.40407 12.3765 8.75697 11.912 8.2867L11.9119 8.2867ZM11.1717 10.1008C11.1742 10.5202 10.9362 10.8812 10.5883 11.0515C10.3005 11.1923 9.95194 11.1895 9.66197 11.0441C9.31203 10.8682 9.0699 10.5032 9.06738 10.0839C9.06472 9.63951 9.33229 9.26089 9.71439 9.10497C9.96729 9.00179 10.2588 9.00413 10.5129 9.11138C10.8969 9.27342 11.1691 9.65637 11.1717 10.1008ZM11.8487 17.8585C13.3849 17.5429 14.7552 16.7779 15.8198 15.7038C16.932 14.5817 17.7109 13.1226 17.9989 11.4863C18.1034 11.0427 17.9134 10.9051 17.5821 10.9131C16.9135 10.8934 16.2447 10.8908 15.6081 11.0071C13.3401 11.4215 12.5346 12.5224 12.1481 15.0689C12.0313 15.8388 11.9519 16.7183 11.8866 17.4423L11.8866 17.4423L11.8865 17.4431C11.8734 17.5886 11.8609 17.7278 11.8487 17.8585ZM8.39006 17.5027C8.40454 17.6447 8.4184 17.7806 8.4318 17.9085C6.89161 17.5681 5.51225 16.781 4.43439 15.6897C3.30878 14.5497 2.51198 13.0779 2.20453 11.4368C2.09448 10.9914 2.283 10.8568 2.61435 10.8702C3.28277 10.8612 3.95172 10.8694 4.58958 10.9959C6.8629 11.4469 7.68181 12.5609 8.09899 15.1138C8.22557 15.8896 8.3159 16.7755 8.39006 17.5027Z" fill="url(#paint1_radial_2612_70192)"/>
<ellipse cx="10.1206" cy="1.28869" rx="1.08329" ry="1.06115" fill="white"/>
<defs>
<linearGradient id="paint0_linear_2612_70192" x1="9.9959" y1="0.112901" x2="9.76991" y2="20.1214" gradientUnits="userSpaceOnUse">
<stop stop-color="#A3C0D5"/>
<stop offset="1" stop-color="#A3C0D5" stop-opacity="0"/>
</linearGradient>
<radialGradient id="paint1_radial_2612_70192" cx="0" cy="0" r="1" gradientUnits="userSpaceOnUse" gradientTransform="translate(10.1404 10.2143) rotate(91.7353) scale(15.2808 15.2604)">
<stop offset="0.313039" stop-color="#F5A623"/>
<stop offset="1" stop-color="#1A222E"/>
</radialGradient>
</defs>
</svg>
